<svg width="1000" height="1000" viewBox="0 0 1000 1000" xmlns="http://www.w3.org/2000/svg"><defs/><path fill="#00acee" transform="matrix(0.4231045095421323 0 0 0.4231045095421323 18.97986163606385 -2.5565335587643077)" d="M 532.86377197379 1095.98344882831 C 507.56377197379 1095.98344882831 484.56377197379 1106.28344882831 467.96377197379 1122.88344882831 L 503.76377197379 1158.68344882831 C 511.16377197379 1151.28344882831 521.46377197379 1146.58344882831 532.86377197379 1146.58344882831 C 555.56377197379 1146.58344882831 573.96377197379 1164.98344882831 573.96377197379 1187.68344882831 C 573.96377197379 1210.38344882831 555.56377197379 1228.78344882831 532.86377197379 1228.78344882831 C 510.16377197379 1228.78344882831 491.76377197379 1210.38344882831 491.76377197379 1187.68344882831 C 491.76377197379 1185.58344882831 491.96377197379 1183.58344882831 492.26377197379 1181.58344882831 L 442.06377197379 1174.08344882831 C 441.36377197379 1178.48344882831 441.06377197379 1183.08344882831 441.06377197379 1187.68344882831 C 441.06377197379 1238.28344882831 482.26377197379 1279.48344882831 532.86377197379 1279.48344882831 C 583.46377197379 1279.48344882831 624.66377197379 1238.28344882831 624.66377197379 1187.68344882831 C 624.66377197379 1137.18344882831 583.46377197379 1095.98344882831 532.86377197379 1095.98344882831 Z M 532.86377197379 1259.88344882831 C 502.76377197379 1259.88344882831 475.56377197379 1240.98344882831 465.26377197379 1212.78344882831 L 475.86377197379 1208.88344882831 C 484.66377197379 1232.68344882831 507.56377197379 1248.68344882831 532.96377197379 1248.68344882831 C 566.46377197379 1248.68344882831 593.76377197379 1221.38344882831 593.76377197379 1187.88344882831 C 593.76377197379 1154.38344882831 566.46377197379 1127.08344882831 532.96377197379 1127.08344882831 C 532.66377197379 1127.08344882831 532.46377197379 1127.08344882831 532.16377197379 1127.08344882831 C 530.46377197379 1131.58344882831 526.16377197379 1134.78344882831 521.06377197379 1134.78344882831 C 514.46377197379 1134.78344882831 509.16377197379 1129.48344882831 509.16377197379 1122.88344882831 C 509.16377197379 1116.28344882831 514.46377197379 1110.98344882831 521.06377197379 1110.98344882831 C 525.06377197379 1110.98344882831 528.46377197379 1112.88344882831 530.66377197379 1115.88344882831 C 531.46377197379 1115.88344882831 532.16377197379 1115.78344882831 532.96377197379 1115.78344882831 C 572.66377197379 1115.78344882831 605.06377197379 1148.08344882831 605.06377197379 1187.88344882831 C 604.96377197379 1227.48344882831 572.56377197379 1259.88344882831 532.86377197379 1259.88344882831 Z"/><path fill="#00acee" transform="matrix(0.4231045095421323 0 0 0.4231045095421323 18.97986163606385 -2.5565335587643077)" d="M 532.86377197379 964.58344882831 C 524.66377197379 964.58344882831 516.46377197379 965.08344882831 508.46377197379 965.98344882831 L 513.96377197379 1016.38344882831 C 520.16377197379 1015.68344882831 526.46377197379 1015.28344882831 532.86377197379 1015.28344882831 C 627.96377197379 1015.28344882831 705.36377197379 1092.68344882831 705.36377197379 1187.78344882831 C 705.36377197379 1282.88344882831 627.96377197379 1360.28344882831 532.86377197379 1360.28344882831 C 437.76377197379 1360.28344882831 360.36377197379 1282.88344882831 360.36377197379 1187.78344882831 C 360.36377197379 1125.28344882831 393.76377197379 1070.48344882831 443.66377197379 1040.18344882831 L 417.46377197379 996.78344882831 C 352.96377197379 1035.98344882831 309.66377197379 1106.88344882831 309.66377197379 1187.78344882831 C 309.66377197379 1310.88344882831 409.76377197379 1410.98344882831 532.86377197379 1410.98344882831 C 655.96377197379 1410.98344882831 756.06377197379 1310.88344882831 756.06377197379 1187.78344882831 C 756.06377197379 1064.68344882831 655.96377197379 964.58344882831 532.86377197379 964.58344882831 Z M 532.86377197379 1391.28344882831 C 420.66377197379 1391.28344882831 329.36377197379 1299.98344882831 329.36377197379 1187.78344882831 C 329.36377197379 1128.68344882831 355.06377197379 1072.58344882831 399.76377197379 1033.88344882831 L 407.16377197379 1042.38344882831 C 364.86377197379 1078.98344882831 340.66377197379 1131.98344882831 340.66377197379 1187.78344882831 C 340.66377197379 1293.78344882831 426.86377197379 1379.98344882831 532.86377197379 1379.98344882831 C 638.86377197379 1379.98344882831 725.06377197379 1293.78344882831 725.06377197379 1187.78344882831 C 725.06377197379 1094.28344882831 657.66377197379 1014.68344882831 566.66377197379 998.58344882831 C 564.46377197379 1001.38344882831 561.06377197379 1003.28344882831 557.16377197379 1003.28344882831 C 550.56377197379 1003.28344882831 545.26377197379 997.98344882831 545.26377197379 991.38344882831 C 545.26377197379 984.78344882831 550.56377197379 979.48344882831 557.16377197379 979.48344882831 C 562.36377197379 979.48344882831 566.76377197379 982.78344882831 568.36377197379 987.48344882831 C 664.76377197379 1004.48344882831 736.26377197379 1088.88344882831 736.26377197379 1187.88344882831 C 736.36377197379 1299.98344882831 645.06377197379 1391.28344882831 532.86377197379 1391.28344882831 Z"/><path fill="#aa36a5" transform="matrix(0.4231045095421323 0 0 0.4231045095421323 18.97986163606385 -2.5565335587643077)" d="M 532.86377197379 1030.28344882831 C 446.06377197379 1030.28344882831 375.36377197379 1100.88344882831 375.36377197379 1187.78344882831 C 375.36377197379 1216.48344882831 383.06377197379 1243.38344882831 396.56377197379 1266.58344882831 L 440.46377197379 1241.28344882831 C 431.36377197379 1225.58344882831 426.06377197379 1207.28344882831 426.06377197379 1187.88344882831 C 426.06377197379 1128.98344882831 473.96377197379 1081.08344882831 532.86377197379 1081.08344882831 C 591.76377197379 1081.08344882831 639.66377197379 1128.98344882831 639.66377197379 1187.88344882831 C 639.66377197379 1246.78344882831 591.76377197379 1294.68344882831 532.86377197379 1294.68344882831 C 515.16377197379 1294.68344882831 498.56377197379 1290.38344882831 483.86377197379 1282.68344882831 L 460.56377197379 1327.68344882831 C 482.26377197379 1338.98344882831 506.86377197379 1345.38344882831 532.86377197379 1345.38344882831 C 619.66377197379 1345.38344882831 690.36377197379 1274.78344882831 690.36377197379 1187.88344882831 C 690.36377197379 1100.88344882831 619.66377197379 1030.28344882831 532.86377197379 1030.28344882831 Z M 532.86377197379 1325.58344882831 C 525.36377197379 1325.58344882831 517.86377197379 1324.98344882831 510.46377197379 1323.78344882831 L 512.26377197379 1312.68344882831 C 518.96377197379 1313.78344882831 525.96377197379 1314.38344882831 532.86377197379 1314.38344882831 C 602.66377197379 1314.38344882831 659.36377197379 1257.58344882831 659.36377197379 1187.88344882831 C 659.36377197379 1118.08344882831 602.56377197379 1061.38344882831 532.86377197379 1061.38344882831 C 463.06377197379 1061.38344882831 406.36377197379 1118.18344882831 406.36377197379 1187.88344882831 C 406.36377197379 1193.18344882831 406.66377197379 1198.58344882831 407.36377197379 1203.88344882831 C 412.36377197379 1205.28344882831 416.06377197379 1209.88344882831 416.06377197379 1215.28344882831 C 416.06377197379 1221.88344882831 410.76377197379 1227.18344882831 404.16377197379 1227.18344882831 C 397.56377197379 1227.18344882831 392.26377197379 1221.88344882831 392.26377197379 1215.28344882831 C 392.26377197379 1211.68344882831 393.86377197379 1208.48344882831 396.36377197379 1206.28344882831 C 395.56377197379 1200.18344882831 395.16377197379 1193.98344882831 395.16377197379 1187.88344882831 C 395.16377197379 1111.88344882831 456.96377197379 1050.08344882831 532.96377197379 1050.08344882831 C 608.96377197379 1050.08344882831 670.76377197379 1111.88344882831 670.76377197379 1187.88344882831 C 670.66377197379 1263.78344882831 608.86377197379 1325.58344882831 532.86377197379 1325.58344882831 Z"/><path id="text" fill="#231e61" transform="matrix(0.72199485114529 0 0 0.72199485114529 239.12483332233148 37.64463660967719)" d="M 219.21352228571 576.99395657143 C 219.21352228571 584.60995657143 217.24552228571 590.38595657143 213.30952228571 594.32195657143 C 209.37352228571 598.25795657143 203.82152228571 600.22595657143 196.65352228571 600.22595657143 L 183.50152228571 600.22595657143 L 183.50152228571 622.11395657143 L 170.15752228571 622.11395657143 L 170.15752228571 553.76195657143 L 196.65352228571 553.76195657143 C 203.82152228571 553.76195657143 209.37352228571 555.72995657143 213.30952228571 559.66595657143 C 217.24552228571 563.60195657143 219.21352228571 569.37795657143 219.21352228571 576.99395657143 Z M 205.86952228571 576.99395657143 C 205.86952228571 569.44195657143 202.57352228571 565.66595657143 195.98152228571 565.66595657143 L 183.50152228571 565.66595657143 L 183.50152228571 588.22595657143 L 195.98152228571 588.22595657143 C 199.18152228571 588.22595657143 201.62952228571 587.36195657143 203.32552228571 585.63395657143 C 205.02152228571 583.90595657143 205.86952228571 581.02595657143 205.86952228571 576.99395657143 Z M 282.18952228571 622.11395657143 L 266.73352228571 622.11395657143 L 253.38952228571 596.76995657143 L 243.78952228571 596.76995657143 L 243.78952228571 622.11395657143 L 230.44552228571 622.11395657143 L 230.44552228571 568.44995657143 C 230.44552228571 563.32995657143 231.62952228571 559.60195657143 233.99752228571 557.26595657143 C 236.36552228571 554.92995657143 240.33352228571 553.76195657143 245.90152228571 553.76195657143 L 257.22952228571 553.76195657143 C 264.01352228571 553.76195657143 269.40552228571 555.82595657143 273.40552228571 559.95395657143 C 277.40552228571 564.08195657143 279.40552228571 569.31395657143 279.40552228571 575.64995657143 C 279.40552228571 580.25795657143 278.20552228571 584.24195657143 275.80552228571 587.60195657143 C 273.40552228571 590.96195657143 270.44552228571 593.28195657143 266.92552228571 594.56195657143 L 282.18952228571 622.11395657143 Z M 263.32552228571 582.70595657143 C 265.14952228571 580.75395657143 266.06152228571 578.32195657143 266.06152228571 575.40995657143 C 266.06152228571 572.49795657143 265.18152228571 570.14595657143 263.42152228571 568.35395657143 C 261.66152228571 566.56195657143 259.30952228571 565.66595657143 256.36552228571 565.66595657143 L 249.74152228571 565.66595657143 C 245.77352228571 565.66595657143 243.78952228571 567.68195657143 243.78952228571 571.71395657143 L 243.78952228571 585.63395657143 L 256.36552228571 585.63395657143 C 259.18152228571 585.63395657143 261.50152228571 584.65795657143 263.32552228571 582.70595657143 Z M 338.25352228571 622.11395657143 L 314.06152228571 622.11395657143 C 306.38152228571 622.11395657143 300.98952228571 620.78595657143 297.88552228571 618.12995657143 C 294.78152228571 615.47395657143 293.22952228571 610.78595657143 293.22952228571 604.06595657143 L 293.22952228571 553.76195657143 L 338.25352228571 553.76195657143 L 338.25352228571 565.66595657143 L 306.57352228571 565.66595657143 L 306.57352228571 581.69795657143 L 328.74952228571 581.69795657143 L 327.78952228571 593.60195657143 L 306.57352228571 593.60195657143 L 306.57352228571 603.10595657143 C 306.57352228571 605.79395657143 307.18152228571 607.64995657143 308.39752228571 608.67395657143 C 309.61352228571 609.69795657143 311.82152228571 610.20995657143 315.02152228571 610.20995657143 L 338.25352228571 610.20995657143 L 338.25352228571 622.11395657143 Z M 401.80552228571 581.31395657143 L 389.51752228571 607.23395657143 C 387.72552228571 610.68995657143 385.50152228571 612.41795657143 382.84552228571 612.41795657143 C 380.18952228571 612.41795657143 377.96552228571 610.59395657143 376.17352228571 606.94595657143 L 363.69352228571 581.31395657143 L 363.69352228571 622.11395657143 L 350.34952228571 622.11395657143 L 350.34952228571 553.76195657143 L 363.50152228571 553.76195657143 L 382.79752228571 593.21795657143 L 401.99752228571 553.76195657143 L 415.14952228571 553.76195657143 L 415.14952228571 622.11395657143 L 401.80552228571 622.11395657143 L 401.80552228571 581.31395657143 Z M 478.22152228571 576.99395657143 C 478.22152228571 584.60995657143 476.25352228571 590.38595657143 472.31752228571 594.32195657143 C 468.38152228571 598.25795657143 462.82952228571 600.22595657143 455.66152228571 600.22595657143 L 442.50952228571 600.22595657143 L 442.50952228571 622.11395657143 L 429.16552228571 622.11395657143 L 429.16552228571 553.76195657143 L 455.66152228571 553.76195657143 C 462.82952228571 553.76195657143 468.38152228571 555.72995657143 472.31752228571 559.66595657143 C 476.25352228571 563.60195657143 478.22152228571 569.37795657143 478.22152228571 576.99395657143 Z M 464.87752228571 576.99395657143 C 464.87752228571 569.44195657143 461.58152228571 565.66595657143 454.98952228571 565.66595657143 L 442.50952228571 565.66595657143 L 442.50952228571 588.22595657143 L 454.98952228571 588.22595657143 C 458.18952228571 588.22595657143 460.63752228571 587.36195657143 462.33352228571 585.63395657143 C 464.02952228571 583.90595657143 464.87752228571 581.02595657143 464.87752228571 576.99395657143 Z M 541.19752228571 622.11395657143 L 525.74152228571 622.11395657143 L 512.39752228571 596.76995657143 L 502.79752228571 596.76995657143 L 502.79752228571 622.11395657143 L 489.45352228571 622.11395657143 L 489.45352228571 568.44995657143 C 489.45352228571 563.32995657143 490.63752228571 559.60195657143 493.00552228571 557.26595657143 C 495.37352228571 554.92995657143 499.34152228571 553.76195657143 504.90952228571 553.76195657143 L 516.23752228571 553.76195657143 C 523.02152228571 553.76195657143 528.41352228571 555.82595657143 532.41352228571 559.95395657143 C 536.41352228571 564.08195657143 538.41352228571 569.31395657143 538.41352228571 575.64995657143 C 538.41352228571 580.25795657143 537.21352228571 584.24195657143 534.81352228571 587.60195657143 C 532.41352228571 590.96195657143 529.45352228571 593.28195657143 525.93352228571 594.56195657143 L 541.19752228571 622.11395657143 Z M 522.33352228571 582.70595657143 C 524.15752228571 580.75395657143 525.06952228571 578.32195657143 525.06952228571 575.40995657143 C 525.06952228571 572.49795657143 524.18952228571 570.14595657143 522.42952228571 568.35395657143 C 520.66952228571 566.56195657143 518.31752228571 565.66595657143 515.37352228571 565.66595657143 L 508.74952228571 565.66595657143 C 504.78152228571 565.66595657143 502.79752228571 567.68195657143 502.79752228571 571.71395657143 L 502.79752228571 585.63395657143 L 515.37352228571 585.63395657143 C 518.18952228571 585.63395657143 520.50952228571 584.65795657143 522.33352228571 582.70595657143 Z M 604.07752228571 622.11395657143 L 590.15752228571 622.11395657143 L 586.31752228571 610.30595657143 L 563.37352228571 610.30595657143 L 559.62952228571 622.11395657143 L 545.70952228571 622.11395657143 L 567.59752228571 559.52195657143 C 568.55752228571 557.34595657143 569.62952228571 555.84195657143 570.81352228571 555.00995657143 C 571.99752228571 554.17795657143 573.45352228571 553.76195657143 575.18152228571 553.76195657143 C 576.90952228571 553.76195657143 578.30152228571 554.14595657143 579.35752228571 554.91395657143 C 580.41352228571 555.68195657143 581.35752228571 557.21795657143 582.18952228571 559.52195657143 L 604.07752228571 622.11395657143 Z M 583.24552228571 599.07395657143 L 575.18152228571 572.00195657143 L 566.73352228571 599.07395657143 L 583.24552228571 599.07395657143 Z M 644.30152228571 585.92195657143 L 667.82152228571 622.11395657143 L 652.26952228571 622.11395657143 L 636.14152228571 596.28995657143 L 626.82952228571 608.76995657143 L 626.82952228571 622.11395657143 L 613.48552228571 622.11395657143 L 613.48552228571 553.76195657143 L 626.82952228571 553.76195657143 L 626.82952228571 591.96995657143 L 652.65352228571 553.76195657143 L 666.09352228571 553.76195657143 L 644.30152228571 585.92195657143 Z M 729.16552228571 622.11395657143 L 715.24552228571 622.11395657143 L 711.40552228571 610.30595657143 L 688.46152228571 610.30595657143 L 684.71752228571 622.11395657143 L 670.79752228571 622.11395657143 L 692.68552228571 559.52195657143 C 693.64552228571 557.34595657143 694.71752228571 555.84195657143 695.90152228571 555.00995657143 C 697.08552228571 554.17795657143 698.54152228571 553.76195657143 700.26952228571 553.76195657143 C 701.99752228571 553.76195657143 703.38952228571 554.14595657143 704.44552228571 554.91395657143 C 705.50152228571 555.68195657143 706.44552228571 557.21795657143 707.27752228571 559.52195657143 L 729.16552228571 622.11395657143 Z M 708.33352228571 599.07395657143 L 700.26952228571 572.00195657143 L 691.82152228571 599.07395657143 L 708.33352228571 599.07395657143 Z M 784.65352228571 601.95395657143 C 784.65352228571 608.41795657143 782.28552228571 613.48995657143 777.54952228571 617.16995657143 C 772.81352228571 620.84995657143 766.76552228571 622.68995657143 759.40552228571 622.68995657143 C 753.58152228571 622.68995657143 747.94952228571 621.08995657143 742.50952228571 617.88995657143 C 739.82152228571 616.22595657143 737.61352228571 613.87395657143 735.88552228571 610.83395657143 C 734.15752228571 607.79395657143 733.29352228571 604.32195657143 733.29352228571 600.41795657143 L 745.38952228571 599.84195657143 C 745.38952228571 603.29795657143 746.86152228571 605.98595657143 749.80552228571 607.90595657143 C 752.74952228571 609.82595657143 756.01352228571 610.78595657143 759.59752228571 610.78595657143 C 767.59752228571 610.78595657143 771.59752228571 607.96995657143 771.59752228571 602.33795657143 C 771.59752228571 597.72995657143 768.87752228571 595.00995657143 763.43752228571 594.17795657143 L 752.30152228571 593.02595657143 C 746.73352228571 592.19395657143 742.31752228571 590.20995657143 739.05352228571 587.07395657143 C 735.78952228571 583.93795657143 734.15752228571 579.42595657143 734.15752228571 573.53795657143 C 734.15752228571 567.64995657143 736.49352228571 562.78595657143 741.16552228571 558.94595657143 C 745.83752228571 555.10595657143 751.74152228571 553.18595657143 758.87752228571 553.18595657143 C 766.01352228571 553.18595657143 771.75752228571 554.99395657143 776.10952228571 558.60995657143 C 780.46152228571 562.22595657143 782.63752228571 566.88195657143 782.63752228571 572.57795657143 L 770.73352228571 573.15395657143 C 769.64552228571 567.58595657143 765.90152228571 564.80195657143 759.50152228571 564.80195657143 C 755.59752228571 564.80195657143 752.54152228571 565.63395657143 750.33352228571 567.29795657143 C 748.12552228571 568.96195657143 747.02152228571 570.92995657143 747.02152228571 573.20195657143 C 747.02152228571 575.47395657143 747.82152228571 577.26595657143 749.42152228571 578.57795657143 C 751.02152228571 579.88995657143 753.00552228571 580.70595657143 755.37352228571 581.02595657143 L 766.31752228571 582.17795657143 C 778.54152228571 583.84195657143 784.65352228571 590.43395657143 784.65352228571 601.95395657143 Z M 846.09352228571 622.11395657143 L 832.74952228571 622.11395657143 L 832.74952228571 594.46595657143 L 807.69352228571 594.46595657143 L 807.69352228571 622.11395657143 L 794.34952228571 622.11395657143 L 794.34952228571 553.76195657143 L 807.69352228571 553.76195657143 L 807.69352228571 582.65795657143 L 832.74952228571 582.65795657143 L 832.74952228571 553.76195657143 L 846.09352228571 553.76195657143 L 846.09352228571 622.11395657143 Z"/><path id="text" fill="#aa36a5" transform="matrix(0.360997425572645 0 0 0.360997425572645 242.07057231500428 108.6311703742821)" d="M 332.15504457143 1230.59591314286 L 332.15504457143 1227.13991314286 C 332.15504457143 1226.43591314286 332.50704457143 1226.08391314286 333.21104457143 1226.08391314286 L 335.99504457143 1226.08391314286 C 336.69904457143 1226.08391314286 337.05104457143 1226.43591314286 337.05104457143 1227.13991314286 L 337.05104457143 1230.30791314286 C 337.05104457143 1236.70791314286 340.15504457143 1239.90791314286 346.36304457143 1239.90791314286 L 356.34704457143 1239.90791314286 C 362.55504457143 1239.90791314286 365.65904457143 1236.67591314286 365.65904457143 1230.21191314286 L 365.65904457143 1226.17991314286 C 365.65904457143 1223.36391314286 364.50704457143 1221.15591314286 362.20304457143 1219.55591314286 C 359.89904457143 1217.95591314286 357.11504457143 1216.80391314286 353.85104457143 1216.09991314286 C 350.58704457143 1215.39591314286 347.30704457143 1214.65991314286 344.01104457143 1213.89191314286 C 340.71504457143 1213.12391314286 337.91504457143 1211.71591314286 335.61104457143 1209.66791314286 C 333.30704457143 1207.61991314286 332.15504457143 1204.86791314286 332.15504457143 1201.41191314286 L 332.15504457143 1196.13191314286 C 332.15504457143 1191.90791314286 333.37104457143 1188.57991314286 335.80304457143 1186.14791314286 C 338.23504457143 1183.71591314286 341.53104457143 1182.49991314286 345.69104457143 1182.49991314286 L 356.82704457143 1182.49991314286 C 360.98704457143 1182.49991314286 364.28304457143 1183.71591314286 366.71504457143 1186.14791314286 C 369.14704457143 1188.57991314286 370.36304457143 1191.90791314286 370.36304457143 1196.13191314286 L 370.36304457143 1198.81991314286 C 370.36304457143 1199.52391314286 370.01104457143 1199.87591314286 369.30704457143 1199.87591314286 L 366.52304457143 1199.87591314286 C 365.81904457143 1199.87591314286 365.46704457143 1199.52391314286 365.46704457143 1198.81991314286 L 365.46704457143 1196.41991314286 C 365.46704457143 1190.01991314286 362.36304457143 1186.81991314286 356.15504457143 1186.81991314286 L 346.26704457143 1186.81991314286 C 340.12304457143 1186.81991314286 337.05104457143 1190.08391314286 337.05104457143 1196.61191314286 L 337.05104457143 1201.41191314286 C 337.05104457143 1205.82791314286 340.98704457143 1208.80391314286 348.85904457143 1210.33991314286 C 352.12304457143 1210.97991314286 355.40304457143 1211.71591314286 358.69904457143 1212.54791314286 C 361.99504457143 1213.37991314286 364.79504457143 1214.88391314286 367.09904457143 1217.05991314286 C 369.40304457143 1219.23591314286 370.55504457143 1222.17991314286 370.55504457143 1225.89191314286 L 370.55504457143 1230.59591314286 C 370.55504457143 1234.81991314286 369.33904457143 1238.14791314286 366.90704457143 1240.57991314286 C 364.47504457143 1243.01191314286 361.17904457143 1244.22791314286 357.01904457143 1244.22791314286 L 345.69104457143 1244.22791314286 C 341.53104457143 1244.22791314286 338.23504457143 1243.01191314286 335.80304457143 1240.57991314286 C 333.37104457143 1238.14791314286 332.15504457143 1234.81991314286 332.15504457143 1230.59591314286 Z M 406.26704457143 1244.22791314286 L 398.01104457143 1244.22791314286 C 393.85104457143 1244.22791314286 390.57104457143 1243.01191314286 388.17104457143 1240.57991314286 C 385.77104457143 1238.14791314286 384.57104457143 1234.81991314286 384.57104457143 1230.59591314286 L 384.57104457143 1208.89991314286 C 384.57104457143 1204.67591314286 385.77104457143 1201.34791314286 388.17104457143 1198.91591314286 C 390.57104457143 1196.48391314286 393.85104457143 1195.26791314286 398.01104457143 1195.26791314286 L 406.26704457143 1195.26791314286 C 410.42704457143 1195.26791314286 413.72304457143 1196.48391314286 416.15504457143 1198.91591314286 C 418.58704457143 1201.34791314286 419.80304457143 1204.67591314286 419.80304457143 1208.89991314286 L 419.80304457143 1230.59591314286 C 419.80304457143 1234.81991314286 418.58704457143 1238.14791314286 416.15504457143 1240.57991314286 C 413.72304457143 1243.01191314286 410.42704457143 1244.22791314286 406.26704457143 1244.22791314286 Z M 398.39504457143 1239.90791314286 L 405.88304457143 1239.90791314286 C 408.82704457143 1239.90791314286 411.08304457143 1239.09191314286 412.65104457143 1237.45991314286 C 414.21904457143 1235.82791314286 415.00304457143 1233.50791314286 415.00304457143 1230.49991314286 L 415.00304457143 1208.99591314286 C 415.00304457143 1205.98791314286 414.21904457143 1203.66791314286 412.65104457143 1202.03591314286 C 411.08304457143 1200.40391314286 408.82704457143 1199.58791314286 405.88304457143 1199.58791314286 L 398.39504457143 1199.58791314286 C 395.45104457143 1199.58791314286 393.21104457143 1200.40391314286 391.67504457143 1202.03591314286 C 390.13904457143 1203.66791314286 389.37104457143 1205.98791314286 389.37104457143 1208.99591314286 L 389.37104457143 1230.49991314286 C 389.37104457143 1233.50791314286 390.13904457143 1235.82791314286 391.67504457143 1237.45991314286 C 393.21104457143 1239.09191314286 395.45104457143 1239.90791314286 398.39504457143 1239.90791314286 Z M 443.22704457143 1195.26791314286 L 451.96304457143 1195.26791314286 C 452.73104457143 1195.26791314286 453.11504457143 1195.61991314286 453.11504457143 1196.32391314286 L 453.11504457143 1198.53191314286 C 453.11504457143 1199.23591314286 452.73104457143 1199.58791314286 451.96304457143 1199.58791314286 L 443.22704457143 1199.58791314286 C 442.65104457143 1199.58791314286 442.36304457143 1199.87591314286 442.36304457143 1200.45191314286 L 442.36304457143 1243.07591314286 C 442.36304457143 1243.84391314286 442.01104457143 1244.22791314286 441.30704457143 1244.22791314286 L 438.52304457143 1244.22791314286 C 437.81904457143 1244.22791314286 437.46704457143 1243.84391314286 437.46704457143 1243.07591314286 L 437.46704457143 1200.45191314286 C 437.46704457143 1199.87591314286 437.17904457143 1199.58791314286 436.60304457143 1199.58791314286 L 430.45904457143 1199.58791314286 C 429.75504457143 1199.58791314286 429.40304457143 1199.23591314286 429.40304457143 1198.53191314286 L 429.40304457143 1196.32391314286 C 429.40304457143 1195.61991314286 429.75504457143 1195.26791314286 430.45904457143 1195.26791314286 L 436.60304457143 1195.26791314286 C 437.17904457143 1195.26791314286 437.46704457143 1194.97991314286 437.46704457143 1194.40391314286 L 437.46704457143 1190.17991314286 C 437.46704457143 1181.21991314286 441.53104457143 1176.73991314286 449.65904457143 1176.73991314286 L 451.96304457143 1176.73991314286 C 452.73104457143 1176.73991314286 453.11504457143 1177.09191314286 453.11504457143 1177.79591314286 L 453.11504457143 1180.00391314286 C 453.11504457143 1180.70791314286 452.73104457143 1181.05991314286 451.96304457143 1181.05991314286 L 450.13904457143 1181.05991314286 C 447.25904457143 1181.05991314286 445.24304457143 1181.82791314286 444.09104457143 1183.36391314286 C 442.93904457143 1184.89991314286 442.36304457143 1187.23591314286 442.36304457143 1190.37191314286 L 442.36304457143 1194.40391314286 C 442.36304457143 1194.97991314286 442.65104457143 1195.26791314286 443.22704457143 1195.26791314286 Z M 464.34704457143 1199.58791314286 L 458.49104457143 1199.58791314286 C 457.78704457143 1199.58791314286 457.43504457143 1199.26791314286 457.43504457143 1198.62791314286 L 457.43504457143 1196.32391314286 C 457.43504457143 1195.61991314286 457.78704457143 1195.26791314286 458.49104457143 1195.26791314286 L 464.34704457143 1195.26791314286 C 464.92304457143 1195.26791314286 465.21104457143 1194.97991314286 465.21104457143 1194.40391314286 L 465.21104457143 1186.62791314286 C 465.21104457143 1185.85991314286 465.56304457143 1185.47591314286 466.26704457143 1185.47591314286 L 469.05104457143 1185.47591314286 C 469.75504457143 1185.47591314286 470.10704457143 1185.85991314286 470.10704457143 1186.62791314286 L 470.10704457143 1194.40391314286 C 470.10704457143 1194.97991314286 470.39504457143 1195.26791314286 470.97104457143 1195.26791314286 L 482.39504457143 1195.26791314286 C 483.09904457143 1195.26791314286 483.45104457143 1195.61991314286 483.45104457143 1196.32391314286 L 483.45104457143 1198.62791314286 C 483.45104457143 1199.26791314286 483.09904457143 1199.58791314286 482.39504457143 1199.58791314286 L 470.97104457143 1199.58791314286 C 470.39504457143 1199.58791314286 470.10704457143 1199.87591314286 470.10704457143 1200.45191314286 L 470.10704457143 1230.69191314286 C 470.10704457143 1233.63591314286 470.93904457143 1235.90791314286 472.60304457143 1237.50791314286 C 474.26704457143 1239.10791314286 476.60304457143 1239.90791314286 479.61104457143 1239.90791314286 L 483.35504457143 1239.90791314286 C 484.05904457143 1239.90791314286 484.41104457143 1240.25991314286 484.41104457143 1240.96391314286 L 484.41104457143 1243.17191314286 C 484.41104457143 1243.87591314286 484.05904457143 1244.22791314286 483.35504457143 1244.22791314286 L 479.22704457143 1244.22791314286 C 475.00304457143 1244.22791314286 471.61104457143 1243.04391314286 469.05104457143 1240.67591314286 C 466.49104457143 1238.30791314286 465.21104457143 1235.04391314286 465.21104457143 1230.88391314286 L 465.21104457143 1200.45191314286 C 465.21104457143 1199.87591314286 464.92304457143 1199.58791314286 464.34704457143 1199.58791314286 Z M 508.89104457143 1244.22791314286 L 505.05104457143 1244.22791314286 C 504.41104457143 1244.22791314286 503.99504457143 1243.84391314286 503.80304457143 1243.07591314286 L 490.36304457143 1196.41991314286 C 490.17104457143 1195.65191314286 490.42704457143 1195.26791314286 491.13104457143 1195.26791314286 L 494.20304457143 1195.26791314286 C 494.90704457143 1195.26791314286 495.32304457143 1195.65191314286 495.45104457143 1196.41991314286 L 506.77904457143 1238.17991314286 L 507.25904457143 1238.17991314286 L 518.39504457143 1196.41991314286 C 518.52304457143 1195.65191314286 518.97104457143 1195.26791314286 519.73904457143 1195.26791314286 L 522.52304457143 1195.26791314286 C 523.29104457143 1195.26791314286 523.73904457143 1195.65191314286 523.86704457143 1196.41991314286 L 534.81104457143 1238.17991314286 L 535.29104457143 1238.17991314286 L 546.71504457143 1196.41991314286 C 546.90704457143 1195.65191314286 547.32304457143 1195.26791314286 547.96304457143 1195.26791314286 L 551.03504457143 1195.26791314286 C 551.80304457143 1195.26791314286 552.05904457143 1195.65191314286 551.80304457143 1196.41991314286 L 538.45904457143 1243.07591314286 C 538.26704457143 1243.84391314286 537.81904457143 1244.22791314286 537.11504457143 1244.22791314286 L 533.27504457143 1244.22791314286 C 532.57104457143 1244.22791314286 532.12304457143 1243.84391314286 531.93104457143 1243.07591314286 L 521.27504457143 1202.56391314286 L 520.79504457143 1202.56391314286 L 510.23504457143 1243.07591314286 C 510.04304457143 1243.84391314286 509.59504457143 1244.22791314286 508.89104457143 1244.22791314286 Z M 579.73904457143 1244.22791314286 L 573.59504457143 1244.22791314286 C 569.43504457143 1244.22791314286 566.15504457143 1243.01191314286 563.75504457143 1240.57991314286 C 561.35504457143 1238.14791314286 560.15504457143 1234.81991314286 560.15504457143 1230.59591314286 L 560.15504457143 1208.89991314286 C 560.15504457143 1204.67591314286 561.35504457143 1201.34791314286 563.75504457143 1198.91591314286 C 566.15504457143 1196.48391314286 569.43504457143 1195.26791314286 573.59504457143 1195.26791314286 L 593.94704457143 1195.26791314286 C 594.58704457143 1195.26791314286 594.90704457143 1195.65191314286 594.90704457143 1196.41991314286 L 594.90704457143 1243.07591314286 C 594.90704457143 1243.84391314286 594.58704457143 1244.22791314286 593.94704457143 1244.22791314286 L 591.16304457143 1244.22791314286 C 590.45904457143 1244.22791314286 590.10704457143 1243.84391314286 590.10704457143 1243.07591314286 L 590.10704457143 1239.23591314286 L 589.72304457143 1239.23591314286 C 588.05904457143 1242.56391314286 584.73104457143 1244.22791314286 579.73904457143 1244.22791314286 Z M 590.10704457143 1230.49991314286 L 590.10704457143 1200.45191314286 C 590.10704457143 1199.87591314286 589.78704457143 1199.58791314286 589.14704457143 1199.58791314286 L 573.97904457143 1199.58791314286 C 571.03504457143 1199.58791314286 568.79504457143 1200.41991314286 567.25904457143 1202.08391314286 C 565.72304457143 1203.74791314286 564.95504457143 1206.08391314286 564.95504457143 1209.09191314286 L 564.95504457143 1230.40391314286 C 564.95504457143 1233.41191314286 565.72304457143 1235.74791314286 567.25904457143 1237.41191314286 C 568.79504457143 1239.07591314286 571.03504457143 1239.90791314286 573.97904457143 1239.90791314286 L 580.21904457143 1239.90791314286 C 583.29104457143 1239.90791314286 585.70704457143 1239.09191314286 587.46704457143 1237.45991314286 C 589.22704457143 1235.82791314286 590.10704457143 1233.50791314286 590.10704457143 1230.49991314286 Z M 613.05104457143 1244.22791314286 L 610.26704457143 1244.22791314286 C 609.62704457143 1244.22791314286 609.30704457143 1243.84391314286 609.30704457143 1243.07591314286 L 609.30704457143 1196.41991314286 C 609.30704457143 1195.65191314286 609.62704457143 1195.26791314286 610.26704457143 1195.26791314286 L 613.05104457143 1195.26791314286 C 613.75504457143 1195.26791314286 614.10704457143 1195.65191314286 614.10704457143 1196.41991314286 L 614.10704457143 1200.45191314286 L 614.49104457143 1200.45191314286 C 615.19504457143 1199.10791314286 616.44304457143 1197.90791314286 618.23504457143 1196.85191314286 C 620.02704457143 1195.79591314286 622.23504457143 1195.26791314286 624.85904457143 1195.26791314286 L 628.60304457143 1195.26791314286 C 629.30704457143 1195.26791314286 629.65904457143 1195.61991314286 629.65904457143 1196.32391314286 L 629.65904457143 1198.62791314286 C 629.65904457143 1199.33191314286 629.30704457143 1199.65191314286 628.60304457143 1199.58791314286 L 624.09104457143 1199.58791314286 C 620.95504457143 1199.58791314286 618.50704457143 1200.54791314286 616.74704457143 1202.46791314286 C 614.98704457143 1204.38791314286 614.10704457143 1206.97991314286 614.10704457143 1210.24391314286 L 614.10704457143 1243.07591314286 C 614.10704457143 1243.84391314286 613.75504457143 1244.22791314286 613.05104457143 1244.22791314286 Z M 671.89904457143 1244.22791314286 L 651.83504457143 1244.22791314286 C 647.67504457143 1244.22791314286 644.39504457143 1243.01191314286 641.99504457143 1240.57991314286 C 639.59504457143 1238.14791314286 638.39504457143 1234.81991314286 638.39504457143 1230.59591314286 L 638.39504457143 1208.89991314286 C 638.39504457143 1204.67591314286 639.59504457143 1201.34791314286 641.99504457143 1198.91591314286 C 644.39504457143 1196.48391314286 647.67504457143 1195.26791314286 651.83504457143 1195.26791314286 L 660.09104457143 1195.26791314286 C 664.25104457143 1195.26791314286 667.54704457143 1196.48391314286 669.97904457143 1198.91591314286 C 672.41104457143 1201.34791314286 673.62704457143 1204.67591314286 673.62704457143 1208.89991314286 L 673.62704457143 1221.09191314286 C 673.62704457143 1221.85991314286 673.24304457143 1222.24391314286 672.47504457143 1222.24391314286 L 644.05904457143 1222.24391314286 C 643.48304457143 1222.24391314286 643.19504457143 1222.53191314286 643.19504457143 1223.10791314286 L 643.19504457143 1230.49991314286 C 643.19504457143 1233.50791314286 643.96304457143 1235.82791314286 645.49904457143 1237.45991314286 C 647.03504457143 1239.09191314286 649.27504457143 1239.90791314286 652.21904457143 1239.90791314286 L 671.89904457143 1239.90791314286 C 672.60304457143 1239.90791314286 672.95504457143 1240.25991314286 672.95504457143 1240.96391314286 L 672.95504457143 1243.17191314286 C 672.95504457143 1243.87591314286 672.60304457143 1244.22791314286 671.89904457143 1244.22791314286 Z M 644.05904457143 1218.40391314286 L 667.96304457143 1218.40391314286 C 668.53904457143 1218.40391314286 668.82704457143 1218.11591314286 668.82704457143 1217.53991314286 L 668.82704457143 1208.99591314286 C 668.82704457143 1205.98791314286 668.05904457143 1203.66791314286 666.52304457143 1202.03591314286 C 664.98704457143 1200.40391314286 662.74704457143 1199.58791314286 659.80304457143 1199.58791314286 L 652.21904457143 1199.58791314286 C 649.27504457143 1199.58791314286 647.03504457143 1200.40391314286 645.49904457143 1202.03591314286 C 643.96304457143 1203.66791314286 643.19504457143 1205.98791314286 643.19504457143 1208.99591314286 L 643.19504457143 1217.53991314286 C 643.19504457143 1218.11591314286 643.48304457143 1218.40391314286 644.05904457143 1218.40391314286 Z M 718.93904457143 1239.90791314286 L 737.37104457143 1239.90791314286 C 740.31504457143 1239.90791314286 742.57104457143 1239.09191314286 744.13904457143 1237.45991314286 C 745.70704457143 1235.82791314286 746.49104457143 1233.47591314286 746.49104457143 1230.40391314286 L 746.49104457143 1196.32391314286 C 746.49104457143 1193.25191314286 745.70704457143 1190.89991314286 744.13904457143 1189.26791314286 C 742.57104457143 1187.63591314286 740.31504457143 1186.81991314286 737.37104457143 1186.81991314286 L 718.93904457143 1186.81991314286 C 718.29904457143 1186.81991314286 717.97904457143 1187.10791314286 717.97904457143 1187.68391314286 L 717.97904457143 1239.04391314286 C 717.97904457143 1239.61991314286 718.29904457143 1239.90791314286 718.93904457143 1239.90791314286 Z M 713.17904457143 1243.07591314286 L 713.17904457143 1183.65191314286 C 713.17904457143 1182.88391314286 713.49904457143 1182.49991314286 714.13904457143 1182.49991314286 L 737.85104457143 1182.49991314286 C 742.01104457143 1182.49991314286 745.29104457143 1183.71591314286 747.69104457143 1186.14791314286 C 750.09104457143 1188.57991314286 751.29104457143 1191.90791314286 751.29104457143 1196.13191314286 L 751.29104457143 1230.59591314286 C 751.29104457143 1234.81991314286 750.09104457143 1238.14791314286 747.69104457143 1240.57991314286 C 745.29104457143 1243.01191314286 742.01104457143 1244.22791314286 737.85104457143 1244.22791314286 L 714.13904457143 1244.22791314286 C 713.49904457143 1244.22791314286 713.17904457143 1243.84391314286 713.17904457143 1243.07591314286 Z M 798.23504457143 1244.22791314286 L 778.17104457143 1244.22791314286 C 774.01104457143 1244.22791314286 770.73104457143 1243.01191314286 768.33104457143 1240.57991314286 C 765.93104457143 1238.14791314286 764.73104457143 1234.81991314286 764.73104457143 1230.59591314286 L 764.73104457143 1208.89991314286 C 764.73104457143 1204.67591314286 765.93104457143 1201.34791314286 768.33104457143 1198.91591314286 C 770.73104457143 1196.48391314286 774.01104457143 1195.26791314286 778.17104457143 1195.26791314286 L 786.42704457143 1195.26791314286 C 790.58704457143 1195.26791314286 793.88304457143 1196.48391314286 796.31504457143 1198.91591314286 C 798.74704457143 1201.34791314286 799.96304457143 1204.67591314286 799.96304457143 1208.89991314286 L 799.96304457143 1221.09191314286 C 799.96304457143 1221.85991314286 799.57904457143 1222.24391314286 798.81104457143 1222.24391314286 L 770.39504457143 1222.24391314286 C 769.81904457143 1222.24391314286 769.53104457143 1222.53191314286 769.53104457143 1223.10791314286 L 769.53104457143 1230.49991314286 C 769.53104457143 1233.50791314286 770.29904457143 1235.82791314286 771.83504457143 1237.45991314286 C 773.37104457143 1239.09191314286 775.61104457143 1239.90791314286 778.55504457143 1239.90791314286 L 798.23504457143 1239.90791314286 C 798.93904457143 1239.90791314286 799.29104457143 1240.25991314286 799.29104457143 1240.96391314286 L 799.29104457143 1243.17191314286 C 799.29104457143 1243.87591314286 798.93904457143 1244.22791314286 798.23504457143 1244.22791314286 Z M 770.39504457143 1218.40391314286 L 794.29904457143 1218.40391314286 C 794.87504457143 1218.40391314286 795.16304457143 1218.11591314286 795.16304457143 1217.53991314286 L 795.16304457143 1208.99591314286 C 795.16304457143 1205.98791314286 794.39504457143 1203.66791314286 792.85904457143 1202.03591314286 C 791.32304457143 1200.40391314286 789.08304457143 1199.58791314286 786.13904457143 1199.58791314286 L 778.55504457143 1199.58791314286 C 775.61104457143 1199.58791314286 773.37104457143 1200.40391314286 771.83504457143 1202.03591314286 C 770.29904457143 1203.66791314286 769.53104457143 1205.98791314286 769.53104457143 1208.99591314286 L 769.53104457143 1217.53991314286 C 769.53104457143 1218.11591314286 769.81904457143 1218.40391314286 770.39504457143 1218.40391314286 Z M 808.41104457143 1195.26791314286 L 811.38704457143 1195.26791314286 C 812.02704457143 1195.26791314286 812.44304457143 1195.65191314286 812.63504457143 1196.41991314286 L 825.49904457143 1238.85191314286 L 825.88304457143 1238.85191314286 L 838.65104457143 1196.41991314286 C 838.90704457143 1195.65191314286 839.32304457143 1195.26791314286 839.89904457143 1195.26791314286 L 842.97104457143 1195.26791314286 C 843.67504457143 1195.26791314286 843.89904457143 1195.65191314286 843.64304457143 1196.41991314286 L 829.14704457143 1243.07591314286 C 828.95504457143 1243.84391314286 828.50704457143 1244.22791314286 827.80304457143 1244.22791314286 L 823.57904457143 1244.22791314286 C 822.87504457143 1244.22791314286 822.39504457143 1243.84391314286 822.13904457143 1243.07591314286 L 807.64304457143 1196.41991314286 C 807.45104457143 1195.65191314286 807.70704457143 1195.26791314286 808.41104457143 1195.26791314286 Z M 885.40304457143 1244.22791314286 L 865.33904457143 1244.22791314286 C 861.17904457143 1244.22791314286 857.89904457143 1243.01191314286 855.49904457143 1240.57991314286 C 853.09904457143 1238.14791314286 851.89904457143 1234.81991314286 851.89904457143 1230.59591314286 L 851.89904457143 1208.89991314286 C 851.89904457143 1204.67591314286 853.09904457143 1201.34791314286 855.49904457143 1198.91591314286 C 857.89904457143 1196.48391314286 861.17904457143 1195.26791314286 865.33904457143 1195.26791314286 L 873.59504457143 1195.26791314286 C 877.75504457143 1195.26791314286 881.05104457143 1196.48391314286 883.48304457143 1198.91591314286 C 885.91504457143 1201.34791314286 887.13104457143 1204.67591314286 887.13104457143 1208.89991314286 L 887.13104457143 1221.09191314286 C 887.13104457143 1221.85991314286 886.74704457143 1222.24391314286 885.97904457143 1222.24391314286 L 857.56304457143 1222.24391314286 C 856.98704457143 1222.24391314286 856.69904457143 1222.53191314286 856.69904457143 1223.10791314286 L 856.69904457143 1230.49991314286 C 856.69904457143 1233.50791314286 857.46704457143 1235.82791314286 859.00304457143 1237.45991314286 C 860.53904457143 1239.09191314286 862.77904457143 1239.90791314286 865.72304457143 1239.90791314286 L 885.40304457143 1239.90791314286 C 886.10704457143 1239.90791314286 886.45904457143 1240.25991314286 886.45904457143 1240.96391314286 L 886.45904457143 1243.17191314286 C 886.45904457143 1243.87591314286 886.10704457143 1244.22791314286 885.40304457143 1244.22791314286 Z M 857.56304457143 1218.40391314286 L 881.46704457143 1218.40391314286 C 882.04304457143 1218.40391314286 882.33104457143 1218.11591314286 882.33104457143 1217.53991314286 L 882.33104457143 1208.99591314286 C 882.33104457143 1205.98791314286 881.56304457143 1203.66791314286 880.02704457143 1202.03591314286 C 878.49104457143 1200.40391314286 876.25104457143 1199.58791314286 873.30704457143 1199.58791314286 L 865.72304457143 1199.58791314286 C 862.77904457143 1199.58791314286 860.53904457143 1200.40391314286 859.00304457143 1202.03591314286 C 857.46704457143 1203.66791314286 856.69904457143 1205.98791314286 856.69904457143 1208.99591314286 L 856.69904457143 1217.53991314286 C 856.69904457143 1218.11591314286 856.98704457143 1218.40391314286 857.56304457143 1218.40391314286 Z M 904.31504457143 1244.22791314286 L 901.53104457143 1244.22791314286 C 900.89104457143 1244.22791314286 900.57104457143 1243.84391314286 900.57104457143 1243.07591314286 L 900.57104457143 1177.89191314286 C 900.57104457143 1177.12391314286 900.89104457143 1176.73991314286 901.53104457143 1176.73991314286 L 904.31504457143 1176.73991314286 C 905.01904457143 1176.73991314286 905.37104457143 1177.12391314286 905.37104457143 1177.89191314286 L 905.37104457143 1243.07591314286 C 905.37104457143 1243.84391314286 905.01904457143 1244.22791314286 904.31504457143 1244.22791314286 Z M 940.98704457143 1244.22791314286 L 932.73104457143 1244.22791314286 C 928.57104457143 1244.22791314286 925.29104457143 1243.01191314286 922.89104457143 1240.57991314286 C 920.49104457143 1238.14791314286 919.29104457143 1234.81991314286 919.29104457143 1230.59591314286 L 919.29104457143 1208.89991314286 C 919.29104457143 1204.67591314286 920.49104457143 1201.34791314286 922.89104457143 1198.91591314286 C 925.29104457143 1196.48391314286 928.57104457143 1195.26791314286 932.73104457143 1195.26791314286 L 940.98704457143 1195.26791314286 C 945.14704457143 1195.26791314286 948.44304457143 1196.48391314286 950.87504457143 1198.91591314286 C 953.30704457143 1201.34791314286 954.52304457143 1204.67591314286 954.52304457143 1208.89991314286 L 954.52304457143 1230.59591314286 C 954.52304457143 1234.81991314286 953.30704457143 1238.14791314286 950.87504457143 1240.57991314286 C 948.44304457143 1243.01191314286 945.14704457143 1244.22791314286 940.98704457143 1244.22791314286 Z M 933.11504457143 1239.90791314286 L 940.60304457143 1239.90791314286 C 943.54704457143 1239.90791314286 945.80304457143 1239.09191314286 947.37104457143 1237.45991314286 C 948.93904457143 1235.82791314286 949.72304457143 1233.50791314286 949.72304457143 1230.49991314286 L 949.72304457143 1208.99591314286 C 949.72304457143 1205.98791314286 948.93904457143 1203.66791314286 947.37104457143 1202.03591314286 C 945.80304457143 1200.40391314286 943.54704457143 1199.58791314286 940.60304457143 1199.58791314286 L 933.11504457143 1199.58791314286 C 930.17104457143 1199.58791314286 927.93104457143 1200.40391314286 926.39504457143 1202.03591314286 C 924.85904457143 1203.66791314286 924.09104457143 1205.98791314286 924.09104457143 1208.99591314286 L 924.09104457143 1230.49991314286 C 924.09104457143 1233.50791314286 924.85904457143 1235.82791314286 926.39504457143 1237.45991314286 C 927.93104457143 1239.09191314286 930.17104457143 1239.90791314286 933.11504457143 1239.90791314286 Z M 971.61104457143 1258.53191314286 L 968.82704457143 1258.53191314286 C 968.18704457143 1258.53191314286 967.86704457143 1258.17991314286 967.86704457143 1257.47591314286 L 967.86704457143 1196.41991314286 C 967.86704457143 1195.65191314286 968.18704457143 1195.26791314286 968.82704457143 1195.26791314286 L 971.61104457143 1195.26791314286 C 972.31504457143 1195.26791314286 972.66704457143 1195.65191314286 972.66704457143 1196.41991314286 L 972.66704457143 1200.25991314286 L 973.05104457143 1200.25991314286 C 974.84304457143 1196.93191314286 978.17104457143 1195.26791314286 983.03504457143 1195.26791314286 L 989.56304457143 1195.26791314286 C 993.65904457143 1195.26791314286 996.89104457143 1196.48391314286 999.25904457143 1198.91591314286 C 1001.62704457143 1201.34791314286 1002.81104457143 1204.67591314286 1002.81104457143 1208.89991314286 L 1002.81104457143 1230.59591314286 C 1002.81104457143 1234.81991314286 1001.62704457143 1238.14791314286 999.25904457143 1240.57991314286 C 996.89104457143 1243.01191314286 993.65904457143 1244.22791314286 989.56304457143 1244.22791314286 L 983.03504457143 1244.22791314286 C 978.17104457143 1244.22791314286 974.84304457143 1242.56391314286 973.05104457143 1239.23591314286 L 972.66704457143 1239.23591314286 L 972.66704457143 1257.47591314286 C 972.66704457143 1258.17991314286 972.31504457143 1258.53191314286 971.61104457143 1258.53191314286 Z M 982.55504457143 1239.90791314286 L 988.89104457143 1239.90791314286 C 991.83504457143 1239.90791314286 994.09104457143 1239.09191314286 995.65904457143 1237.45991314286 C 997.22704457143 1235.82791314286 998.01104457143 1233.47591314286 998.01104457143 1230.40391314286 L 998.01104457143 1209.09191314286 C 998.01104457143 1206.01991314286 997.22704457143 1203.66791314286 995.65904457143 1202.03591314286 C 994.09104457143 1200.40391314286 991.83504457143 1199.58791314286 988.89104457143 1199.58791314286 L 982.55504457143 1199.58791314286 C 979.48304457143 1199.58791314286 977.06704457143 1200.40391314286 975.30704457143 1202.03591314286 C 973.54704457143 1203.66791314286 972.66704457143 1205.98791314286 972.66704457143 1208.99591314286 L 972.66704457143 1230.49991314286 C 972.66704457143 1233.50791314286 973.54704457143 1235.82791314286 975.30704457143 1237.45991314286 C 977.06704457143 1239.09191314286 979.48304457143 1239.90791314286 982.55504457143 1239.90791314286 Z M 1019.99504457143 1244.22791314286 L 1017.21104457143 1244.22791314286 C 1016.57104457143 1244.22791314286 1016.25104457143 1243.84391314286 1016.25104457143 1243.07591314286 L 1016.25104457143 1196.41991314286 C 1016.25104457143 1195.65191314286 1016.57104457143 1195.26791314286 1017.21104457143 1195.26791314286 L 1019.99504457143 1195.26791314286 C 1020.69904457143 1195.26791314286 1021.05104457143 1195.65191314286 1021.05104457143 1196.41991314286 L 1021.05104457143 1200.25991314286 L 1021.43504457143 1200.25991314286 C 1023.29104457143 1196.93191314286 1026.68304457143 1195.26791314286 1031.61104457143 1195.26791314286 L 1035.54704457143 1195.26791314286 C 1041.17904457143 1195.26791314286 1045.08304457143 1197.50791314286 1047.25904457143 1201.98791314286 C 1048.21904457143 1199.74791314286 1049.85104457143 1198.06791314286 1052.15504457143 1196.94791314286 C 1054.45904457143 1195.82791314286 1056.82704457143 1195.26791314286 1059.25904457143 1195.26791314286 L 1062.81104457143 1195.26791314286 C 1066.97104457143 1195.26791314286 1070.23504457143 1196.48391314286 1072.60304457143 1198.91591314286 C 1074.97104457143 1201.34791314286 1076.15504457143 1204.67591314286 1076.15504457143 1208.89991314286 L 1076.15504457143 1243.07591314286 C 1076.15504457143 1243.84391314286 1075.80304457143 1244.22791314286 1075.09904457143 1244.22791314286 L 1072.31504457143 1244.22791314286 C 1071.61104457143 1244.22791314286 1071.25904457143 1243.84391314286 1071.25904457143 1243.07591314286 L 1071.25904457143 1209.09191314286 C 1071.25904457143 1206.01991314286 1070.49104457143 1203.66791314286 1068.95504457143 1202.03591314286 C 1067.41904457143 1200.40391314286 1065.17904457143 1199.58791314286 1062.23504457143 1199.58791314286 L 1058.68304457143 1199.58791314286 C 1055.61104457143 1199.58791314286 1053.17904457143 1200.46791314286 1051.38704457143 1202.22791314286 C 1049.59504457143 1203.98791314286 1048.69904457143 1206.37191314286 1048.69904457143 1209.37991314286 L 1048.69904457143 1243.07591314286 C 1048.69904457143 1243.84391314286 1048.34704457143 1244.22791314286 1047.64304457143 1244.22791314286 L 1044.85904457143 1244.22791314286 C 1044.15504457143 1244.22791314286 1043.80304457143 1243.84391314286 1043.80304457143 1243.07591314286 L 1043.80304457143 1209.09191314286 C 1043.80304457143 1206.01991314286 1043.03504457143 1203.66791314286 1041.49904457143 1202.03591314286 C 1039.96304457143 1200.40391314286 1037.72304457143 1199.58791314286 1034.77904457143 1199.58791314286 L 1030.93904457143 1199.58791314286 C 1027.86704457143 1199.58791314286 1025.45104457143 1200.40391314286 1023.69104457143 1202.03591314286 C 1021.93104457143 1203.66791314286 1021.05104457143 1205.98791314286 1021.05104457143 1208.99591314286 L 1021.05104457143 1243.07591314286 C 1021.05104457143 1243.84391314286 1020.69904457143 1244.22791314286 1019.99504457143 1244.22791314286 Z M 1122.61904457143 1244.22791314286 L 1102.55504457143 1244.22791314286 C 1098.39504457143 1244.22791314286 1095.11504457143 1243.01191314286 1092.71504457143 1240.57991314286 C 1090.31504457143 1238.14791314286 1089.11504457143 1234.81991314286 1089.11504457143 1230.59591314286 L 1089.11504457143 1208.89991314286 C 1089.11504457143 1204.67591314286 1090.31504457143 1201.34791314286 1092.71504457143 1198.91591314286 C 1095.11504457143 1196.48391314286 1098.39504457143 1195.26791314286 1102.55504457143 1195.26791314286 L 1110.81104457143 1195.26791314286 C 1114.97104457143 1195.26791314286 1118.26704457143 1196.48391314286 1120.69904457143 1198.91591314286 C 1123.13104457143 1201.34791314286 1124.34704457143 1204.67591314286 1124.34704457143 1208.89991314286 L 1124.34704457143 1221.09191314286 C 1124.34704457143 1221.85991314286 1123.96304457143 1222.24391314286 1123.19504457143 1222.24391314286 L 1094.77904457143 1222.24391314286 C 1094.20304457143 1222.24391314286 1093.91504457143 1222.53191314286 1093.91504457143 1223.10791314286 L 1093.91504457143 1230.49991314286 C 1093.91504457143 1233.50791314286 1094.68304457143 1235.82791314286 1096.21904457143 1237.45991314286 C 1097.75504457143 1239.09191314286 1099.99504457143 1239.90791314286 1102.93904457143 1239.90791314286 L 1122.61904457143 1239.90791314286 C 1123.32304457143 1239.90791314286 1123.67504457143 1240.25991314286 1123.67504457143 1240.96391314286 L 1123.67504457143 1243.17191314286 C 1123.67504457143 1243.87591314286 1123.32304457143 1244.22791314286 1122.61904457143 1244.22791314286 Z M 1094.77904457143 1218.40391314286 L 1118.68304457143 1218.40391314286 C 1119.25904457143 1218.40391314286 1119.54704457143 1218.11591314286 1119.54704457143 1217.53991314286 L 1119.54704457143 1208.99591314286 C 1119.54704457143 1205.98791314286 1118.77904457143 1203.66791314286 1117.24304457143 1202.03591314286 C 1115.70704457143 1200.40391314286 1113.46704457143 1199.58791314286 1110.52304457143 1199.58791314286 L 1102.93904457143 1199.58791314286 C 1099.99504457143 1199.58791314286 1097.75504457143 1200.40391314286 1096.21904457143 1202.03591314286 C 1094.68304457143 1203.66791314286 1093.91504457143 1205.98791314286 1093.91504457143 1208.99591314286 L 1093.91504457143 1217.53991314286 C 1093.91504457143 1218.11591314286 1094.20304457143 1218.40391314286 1094.77904457143 1218.40391314286 Z M 1141.05104457143 1244.22791314286 L 1138.26704457143 1244.22791314286 C 1137.62704457143 1244.22791314286 1137.30704457143 1243.84391314286 1137.30704457143 1243.07591314286 L 1137.30704457143 1196.41991314286 C 1137.30704457143 1195.65191314286 1137.62704457143 1195.26791314286 1138.26704457143 1195.26791314286 L 1141.05104457143 1195.26791314286 C 1141.75504457143 1195.26791314286 1142.10704457143 1195.65191314286 1142.10704457143 1196.41991314286 L 1142.10704457143 1200.25991314286 L 1142.49104457143 1200.25991314286 C 1144.28304457143 1196.93191314286 1147.61104457143 1195.26791314286 1152.47504457143 1195.26791314286 L 1158.81104457143 1195.26791314286 C 1162.90704457143 1195.26791314286 1166.13904457143 1196.48391314286 1168.50704457143 1198.91591314286 C 1170.87504457143 1201.34791314286 1172.05904457143 1204.67591314286 1172.05904457143 1208.89991314286 L 1172.05904457143 1243.07591314286 C 1172.05904457143 1243.84391314286 1171.73904457143 1244.22791314286 1171.09904457143 1244.22791314286 L 1168.31504457143 1244.22791314286 C 1167.61104457143 1244.22791314286 1167.25904457143 1243.84391314286 1167.25904457143 1243.07591314286 L 1167.25904457143 1209.09191314286 C 1167.25904457143 1206.08391314286 1166.49104457143 1203.74791314286 1164.95504457143 1202.08391314286 C 1163.41904457143 1200.41991314286 1161.17904457143 1199.58791314286 1158.23504457143 1199.58791314286 L 1151.99504457143 1199.58791314286 C 1148.92304457143 1199.58791314286 1146.50704457143 1200.40391314286 1144.74704457143 1202.03591314286 C 1142.98704457143 1203.66791314286 1142.10704457143 1205.98791314286 1142.10704457143 1208.99591314286 L 1142.10704457143 1243.07591314286 C 1142.10704457143 1243.84391314286 1141.75504457143 1244.22791314286 1141.05104457143 1244.22791314286 Z M 1188.09104457143 1199.58791314286 L 1182.23504457143 1199.58791314286 C 1181.53104457143 1199.58791314286 1181.17904457143 1199.26791314286 1181.17904457143 1198.62791314286 L 1181.17904457143 1196.32391314286 C 1181.17904457143 1195.61991314286 1181.53104457143 1195.26791314286 1182.23504457143 1195.26791314286 L 1188.09104457143 1195.26791314286 C 1188.66704457143 1195.26791314286 1188.95504457143 1194.97991314286 1188.95504457143 1194.40391314286 L 1188.95504457143 1186.62791314286 C 1188.95504457143 1185.85991314286 1189.30704457143 1185.47591314286 1190.01104457143 1185.47591314286 L 1192.79504457143 1185.47591314286 C 1193.49904457143 1185.47591314286 1193.85104457143 1185.85991314286 1193.85104457143 1186.62791314286 L 1193.85104457143 1194.40391314286 C 1193.85104457143 1194.97991314286 1194.13904457143 1195.26791314286 1194.71504457143 1195.26791314286 L 1206.13904457143 1195.26791314286 C 1206.84304457143 1195.26791314286 1207.19504457143 1195.61991314286 1207.19504457143 1196.32391314286 L 1207.19504457143 1198.62791314286 C 1207.19504457143 1199.26791314286 1206.84304457143 1199.58791314286 1206.13904457143 1199.58791314286 L 1194.71504457143 1199.58791314286 C 1194.13904457143 1199.58791314286 1193.85104457143 1199.87591314286 1193.85104457143 1200.45191314286 L 1193.85104457143 1230.69191314286 C 1193.85104457143 1233.63591314286 1194.68304457143 1235.90791314286 1196.34704457143 1237.50791314286 C 1198.01104457143 1239.10791314286 1200.34704457143 1239.90791314286 1203.35504457143 1239.90791314286 L 1207.09904457143 1239.90791314286 C 1207.80304457143 1239.90791314286 1208.15504457143 1240.25991314286 1208.15504457143 1240.96391314286 L 1208.15504457143 1243.17191314286 C 1208.15504457143 1243.87591314286 1207.80304457143 1244.22791314286 1207.09904457143 1244.22791314286 L 1202.97104457143 1244.22791314286 C 1198.74704457143 1244.22791314286 1195.35504457143 1243.04391314286 1192.79504457143 1240.67591314286 C 1190.23504457143 1238.30791314286 1188.95504457143 1235.04391314286 1188.95504457143 1230.88391314286 L 1188.95504457143 1200.45191314286 C 1188.95504457143 1199.87591314286 1188.66704457143 1199.58791314286 1188.09104457143 1199.58791314286 Z"/></svg>